<?xml version="1.0" encoding="UTF-8" standalone="no"?>
<svg
   version="1.1"
   width="1066.6667"
   height="1066.6667"
   viewBox="0 0 1066.6667 1066.6667"
   xmlns="http://www.w3.org/2000/svg">
  <rect width="1066.6667" height="1066.6667" fill="#0A0A0A"/>
  <g id="g1">
    <g id="group-R5">
      <path
         d="m 5023.25,4010.8 c -1.15,-1.65 -2.38,-3.28 -3.54,-4.92 5.46,-5.7 10.83,-11.25 16.12,-16.68 -4.26,7.16 -8.49,14.34 -12.58,21.6"
         style="fill:#F2EFE9;fill-opacity:1;fill-rule:nonzero;stroke:none"
         transform="matrix(0.13333333,0,0,-0.13333333,0,1066.6667)" />
      <path
         d="m 6358.04,3598.1 c -24.98,-135.41 -65.31,-242.97 -121,-322.68 -48.03,-69.13 -115.73,-122.69 -203.11,-160.61 -87.4,-37.94 -185.82,-56.89 -295.3,-56.89 -170.96,0 -315.45,46.46 -433.71,138.96 1.66,5.05 3.43,9.95 4.98,15.17 l -0.57,0.25 c 4.68,12.19 9.13,24.72 13.07,37.99 l -22.99,10.24 -6.11,2.72 c -6.09,-14.8 -12.49,-28.3 -19.14,-40.75 -16.64,-31.18 -34.98,-55.14 -55.07,-71.61 -28.15,-23.05 -63.08,-34.57 -104.78,-34.57 -22.86,0 -46.16,4.02 -69.87,11.86 -16.52,5.46 -33.24,12.72 -50.18,21.99 -41.25,22.55 -89.49,58.81 -144.79,108.76 -33.44,30.6 -71.03,68.56 -112.74,113.78 0.14,0.3 0.29,0.59 0.43,0.89 11.46,14.46 22.28,29.1 32.67,43.83 1.17,1.64 2.39,3.27 3.54,4.91 4.1,-7.25 8.32,-14.43 12.59,-21.59 22.6,-23.15 43.78,-43.77 63.51,-61.82 55.3,-49.95 103.55,-86.21 144.79,-108.76 41.22,-22.57 81.24,-33.85 120.06,-33.85 41.69,0 76.62,11.52 104.77,34.57 7.74,6.34 15.2,13.89 22.42,22.41 -10.24,10.37 -20.33,21.02 -30.1,32.21 -72.03,81.61 -126.77,182.94 -164.22,303.95 -37.45,121 -56.18,256.88 -56.18,407.65 0,177.66 27.37,336.12 82.11,475.37 38.39,98.9 87.87,187.02 148.37,264.33 60.5,77.3 125.8,136.6 195.91,177.91 79.7,47.04 173.8,70.58 282.33,70.58 72.03,0 136.85,-11.53 194.47,-34.57 57.62,-23.05 113.3,-60.03 167.1,-110.92 71.06,-67.23 125.33,-141.17 162.78,-221.84 21.11,-45.15 48.47,-113.8 82.11,-205.99 5.76,-14.41 13.9,-35.54 24.48,-63.38 h 33.13 l -17.28,643.9 h -34.57 c -9.62,-22.1 -17.78,-37.94 -24.49,-47.53 -15.38,-20.17 -35.07,-30.25 -59.06,-30.25 -17.29,0 -37.46,4.31 -60.5,12.96 l -118.12,38.89 c -129.65,44.16 -252.59,66.27 -368.77,66.27 -121.97,0 -243.69,-20.42 -365.17,-61.22 -121.49,-40.84 -225.93,-95.8 -313.31,-164.95 -113.33,-90.27 -201.67,-209.59 -265.04,-357.96 -26.06,-60.98 -46.66,-124.32 -62.01,-189.93 -8.11,-18.74 -13.19,-41.91 -14.31,-70.33 -12.48,-72.62 -18.76,-147.9 -18.76,-225.91 0,-0.99 0.04,-1.95 0.04,-2.95 -32.3,-204.55 -108.29,-436.78 -235.03,-613.57 -76.32,-106.45 -170.69,-177.97 -256.19,-225.49 -64.7,-28.17 -135.16,-42.45 -211.53,-42.45 -68.12,0 -133.07,12 -194.86,36.02 -61.8,23.99 -114.64,57.61 -158.51,100.83 -37.63,38.15 -68.95,83.1 -94.19,134.61 -6.45,14.34 -13.16,29.58 -20.14,45.72 -26.52,67.72 -39.84,137.71 -39.84,210.04 0,81.55 15.23,157.3 45.62,227.27 H 2749.7 v -110.59 c 118.12,0 202.86,-21.13 254.25,-63.38 51.37,-42.27 77.07,-110.91 77.07,-205.99 0,-102.77 -28.34,-191.58 -84.99,-266.49 -41.31,-53.79 -94.13,-96.04 -158.46,-126.76 -64.35,-30.75 -133.02,-46.1 -205.99,-46.1 -185.35,0 -342.36,86.43 -471.04,259.29 -66.26,89.31 -116.68,192.3 -151.25,308.99 -34.57,116.68 -51.86,240.78 -51.86,372.37 0,275.6 72.02,520.48 216.07,734.64 71.06,104.67 147.65,180.3 229.76,226.88 82.11,46.57 180.29,69.87 294.59,69.87 146.93,0 272.25,-52.11 375.96,-156.29 103.72,-104.22 188.71,-262.89 254.97,-476.09 l 33.13,2.88 -17.28,626.62 h -37.45 c -20.17,-62.44 -49.47,-93.64 -87.87,-93.64 -17.29,0 -36.51,4.33 -57.62,12.97 l -85,38.89 c -73.96,32.64 -143.82,56.19 -209.59,70.59 -65.78,14.4 -137.09,21.61 -213.91,21.61 -132.53,0 -258.34,-21.14 -377.41,-63.38 -119.09,-42.28 -224.25,-102.28 -315.47,-180.07 -111.41,-96.04 -197.84,-218.01 -259.29,-365.88 -61.47,-147.9 -92.19,-307.8 -92.19,-479.69 0,-124.85 17.04,-242.97 51.14,-354.36 34.08,-111.42 82.82,-207.43 146.21,-288.1 84.49,-107.57 194.69,-190.15 330.59,-247.77 135.88,-57.61 288.33,-86.43 457.36,-86.43 122.91,0 239.6,15.38 350.04,46.1 110.42,30.72 207.43,74.91 290.98,132.53 12.22,8.27 23.64,14.99 34.25,20.16 6.93,-6.84 14.12,-13.56 21.56,-20.16 55.5,-49.95 141.79,-89.32 229.11,-118.12 2.33,-0.77 4.69,-1.42 7.03,-2.17 85.16,-27.29 173.29,-41.05 264.47,-41.05 4.68,0 9.29,0.22 13.95,0.29 0.01,-0.03 0.07,-0.15 0.07,-0.15 330.66,0 568.28,84.4 739.09,206.15 42.83,-42.55 84.92,-79.28 126.21,-109.78 47.55,-35.54 100.44,-63.38 158.67,-83.55 58.2,-20.17 114,-30.25 167.39,-30.25 88.83,0 160.41,25.23 214.9,75.47 14.98,-5.76 30.13,-11.31 45.65,-16.4 121,-39.37 247.77,-59.07 380.3,-59.07 142.11,0 267.2,22.58 375.25,67.71 108.03,45.13 192.77,110.42 254.24,195.9 64.33,89.31 105.63,209.82 123.88,361.57 l -33.13,5.76"
         style="fill:#F2EFE9;fill-opacity:1;fill-rule:nonzero;stroke:none"
         transform="matrix(0.13333333,0,0,-0.13333333,0,1066.6667)" />
      <path
         d="m 3703.97,4930.56 c 49.53,43.22 114.62,64.83 195.26,64.83 93.27,0 167.57,-28.34 222.85,-84.99 55.3,-56.68 82.94,-133.02 82.94,-229.05 0,-81.63 -20.2,-157.98 -60.54,-229.04 -20.76,-37.45 -44.7,-69.63 -71.78,-96.51 -27.1,-26.89 -67.74,-58.11 -121.92,-93.63 -63.31,68.18 -121.98,136.85 -176.08,205.99 -56.4,72.03 -94.66,128.68 -114.81,169.98 -20.14,41.28 -30.19,82.58 -30.19,123.89 0,69.14 24.75,125.32 74.27,168.53 z m -8.41,-787.95 -27.73,-15.84 c -95.91,-51.86 -171.28,-97.23 -226.14,-136.13 -44.96,-31.87 -84.6,-65.54 -119.08,-100.94 h 184.15 c 1.56,2.67 3.07,5.37 4.68,8.03 52.85,87.37 126.95,155.57 222.32,204.55 l 635.99,-713.98 c 0.05,0.07 0.11,0.14 0.17,0.22 52.71,73.53 96.59,156.68 132.26,243.41 -263.4,303.29 -518.4,598.55 -518.4,598.55 27.79,16.32 79.34,44.66 154.64,84.99 106.54,55.68 183.55,112.58 231.04,170.7 47.49,58.09 71.23,124.6 71.23,199.51 0,101.78 -46.3,185.1 -138.87,249.93 -92.6,64.81 -210.63,97.23 -354.11,97.23 -109.95,0 -204.28,-18.73 -282.96,-56.18 -78.69,-37.45 -138.29,-92.19 -178.79,-164.22 -32.41,-54.74 -48.6,-109.97 -48.6,-165.66 0,-89.3 35.22,-190.63 105.7,-303.94 30.03,-48.97 80.85,-115.73 152.5,-200.23"
         style="fill:#F2EFE9;fill-opacity:1;fill-rule:nonzero;stroke:none"
         transform="matrix(0.13333333,0,0,-0.13333333,0,1066.6667)" />
    </g>
  </g>
</svg>
